<?xml version="1.0" encoding="UTF-8"?>
<svg version="1.1" xmlns="http://www.w3.org/2000/svg" width="500" height="500">
<path d="M0 0 C165 0 330 0 500 0 C500 165 500 330 500 500 C335 500 170 500 0 500 C0 335 0 170 0 0 Z " fill="#FEFEFE" transform="translate(0,0)"/>
<path d="M0 0 C99.33 0 198.66 0 301 0 C301 40.26 301 80.52 301 122 C293.74 122 286.48 122 279 122 C278.87625 118.638125 278.7525 115.27625 278.625 111.8125 C278.13268652 100.35019443 277.36789108 89.7211872 273 79 C273 78.01 273 77.02 273 76 C272.34 76 271.68 76 271 76 C270.01 72.7 269.02 69.4 268 66 C267.34 66 266.68 66 266 66 C265.2265625 64.2675 265.2265625 64.2675 264.4375 62.5 C259.55762171 52.89221196 250.63299616 44.81649808 241 40 C241 39.34 241 38.68 241 38 C240.41992188 37.81824219 239.83984375 37.63648438 239.2421875 37.44921875 C238.46101562 37.19785156 237.67984375 36.94648437 236.875 36.6875 C236.10929688 36.44386719 235.34359375 36.20023438 234.5546875 35.94921875 C232 35 232 35 229.19140625 33.52734375 C225.53212409 31.77608386 221.99382117 30.80482998 218.0625 29.875 C217.38509766 29.70613281 216.70769531 29.53726563 216.00976562 29.36328125 C208.21051984 27.46394431 200.56563257 26.78896946 192.5625 26.4375 C191.64017578 26.39431641 190.71785156 26.35113281 189.76757812 26.30664062 C187.51183837 26.20145069 185.25600501 26.09930893 183 26 C183.0818114 60.09883014 183.17399752 94.19761433 183.28005161 128.29637741 C183.29257013 132.32421232 183.30500296 136.35204748 183.31738281 140.37988281 C183.31984881 141.18173508 183.3223148 141.98358735 183.32485552 142.80973817 C183.36455358 155.78452308 183.39731398 168.75931667 183.42749982 181.73412679 C183.45863984 195.05252726 183.49726014 208.37089098 183.54279006 221.68925011 C183.57063814 229.9040005 183.59268709 238.11872408 183.60726251 246.33350892 C183.61782388 251.97058971 183.63566665 257.6076185 183.65916704 263.24466006 C183.67250224 266.49444567 183.68161104 269.7441451 183.68421364 272.99395943 C183.68754707 276.52446519 183.70305425 280.05472014 183.7215271 283.58517456 C183.718625 285.11147958 183.718625 285.11147958 183.71566427 286.66861904 C183.82380487 300.53032813 186.86353914 311.57014769 196.484375 321.828125 C200.27214251 325.09830937 204.23984435 326.63381815 209 328 C209.99 328.33 210.98 328.66 212 329 C212 329.66 212 330.32 212 331 C227.84 331.495 227.84 331.495 244 332 C244 340.58 244 349.16 244 358 C182.62 358 121.24 358 58 358 C58 349.42 58 340.84 58 332 C61.939375 331.95875 65.87875 331.9175 69.9375 331.875 C83.57160768 331.4861606 97.11203098 329.80831268 107.45703125 320.00390625 C119.3881627 304.50853806 118.72837937 284.91571495 118.65942383 266.35498047 C118.66789187 263.71193181 118.67832633 261.06895789 118.69119263 258.42593384 C118.71485595 252.77201465 118.72068642 247.11831318 118.71384621 241.46435165 C118.70398353 233.29007101 118.72188316 225.11602916 118.74621352 216.94178726 C118.78496455 203.67456499 118.8017578 190.40741176 118.80444336 177.14013672 C118.80709735 164.26444973 118.82027853 151.38884326 118.84741211 138.51318359 C118.84992218 137.31950491 118.84992218 137.31950491 118.85248295 136.1017115 C118.8609434 132.10885144 118.86960865 128.11599186 118.87837565 124.12313247 C118.95065868 91.08209692 118.98718046 58.04111301 119 25 C115.46890776 25.30170028 111.93852034 25.61100331 108.40820312 25.92163086 C107.41363098 26.00651512 106.41905884 26.09139938 105.39434814 26.1788559 C98.5955482 26.78204061 92.09092826 27.75080112 85.5 29.5625 C83.80250347 30.00292459 82.10459717 30.44177335 80.40625 30.87890625 C79.26929688 31.17692139 79.26929688 31.17692139 78.109375 31.48095703 C75.42737 32.14090409 72.73266801 32.60518271 70 33 C70 33.66 70 34.32 70 35 C68.89205078 35.49306641 68.89205078 35.49306641 67.76171875 35.99609375 C53.07679158 42.88140268 41.14410873 53.32430546 34 68 C33.56816406 68.84304687 33.13632813 69.68609375 32.69140625 70.5546875 C29.29196825 77.51496115 27.53226477 84.43610337 26 92 C25.83371094 92.66410889 25.66742188 93.32821777 25.49609375 94.01245117 C24.01656637 100.03576258 23.58233286 105.87641454 23.375 112.0625 C23.25125 115.341875 23.1275 118.62125 23 122 C15.41 122 7.82 122 0 122 C0 81.74 0 41.48 0 0 Z " fill="#E20275" transform="translate(99,71)"/>
<path d="M0 0 C1.25908676 0.00222061 2.51817352 0.00444122 3.81541443 0.00672913 C4.51930015 0.00660859 5.22318586 0.00648806 5.94840145 0.00636387 C8.23670502 0.00711285 10.52492808 0.01474035 12.81321716 0.02259827 C14.22203024 0.02406773 15.63084386 0.02508841 17.03965759 0.02565002 C22.27538367 0.03090236 27.51109807 0.04486345 32.74681091 0.05775452 C50.28837341 0.08869202 50.28837341 0.08869202 68.18431091 0.12025452 C68.18431091 24.21025452 68.18431091 48.30025452 68.18431091 73.12025452 C56.48993591 73.14087952 44.79556091 73.16150452 32.74681091 73.18275452 C29.0492157 73.19185852 25.35162048 73.20096252 21.54197693 73.21034241 C17.03965759 73.21485901 17.03965759 73.21485901 14.93441772 73.21569824 C13.45862528 73.21723757 11.98283411 73.22076228 10.50704956 73.22583008 C8.27648216 73.23310932 6.04599186 73.23416188 3.81541443 73.23377991 C1.92678429 73.23711082 1.92678429 73.23711082 0 73.24050903 C-2.81568909 73.12025452 -2.81568909 73.12025452 -3.81568909 72.12025452 C-3.91529061 69.91700478 -3.94368666 67.71051961 -3.94508362 65.50502014 C-3.94683594 64.8139769 -3.94858826 64.12293365 -3.95039368 63.41094971 C-3.95481163 61.11610944 -3.95187442 58.82134563 -3.94850159 56.52650452 C-3.94917464 54.93849167 -3.95014468 53.35047892 -3.95140076 51.76246643 C-3.95287765 48.43005902 -3.95072345 45.09767836 -3.94606018 41.76527405 C-3.94036289 37.48426941 -3.94364194 33.20332747 -3.94963264 28.92232513 C-3.95323849 25.64191715 -3.95209957 22.36152414 -3.94950485 19.08111572 C-3.94883565 17.50218702 -3.94966378 15.92325697 -3.95198441 14.34432983 C-3.95451131 12.14134599 -3.95066984 9.93846503 -3.94508362 7.73548889 C-3.94428802 6.47941833 -3.94349243 5.22334778 -3.94267273 3.92921448 C-3.77232945 0.16111142 -3.77232945 0.16111142 0 0 Z " fill="#E20677" transform="translate(331.81568908691406,234.87974548339844)"/>
<path d="M0 0 C23.43 0 46.86 0 71 0 C71 23.43 71 46.86 71 71 C47.57 71 24.14 71 0 71 C0 47.57 0 24.14 0 0 Z " fill="#E10073" transform="translate(100,236)"/>
<path d="M0 0 C0.66 0.33 1.32 0.66 2 1 C-3.94 6.94 -9.88 12.88 -16 19 C-16 14.76641181 -13.57639709 12.97541337 -10.8125 10.0625 C-10.08836914 9.27456055 -10.08836914 9.27456055 -9.34960938 8.47070312 C-6.43336087 5.34307553 -3.41697361 2.59240228 0 0 Z " fill="#FAD3E7" transform="translate(154,113)"/>
</svg>
